<svg width="100" height="100" viewBox="0 0 100 100" fill="none" xmlns="http://www.w3.org/2000/svg">
<path d="M49.9998 43.7497L62.4998 20.833M49.9998 54.1663V62.4997M58.3332 54.1663V62.4997M41.6665 54.1663V62.4997M4.1665 45.8205C4.1665 43.5288 5.99984 41.6663 8.3415 41.6663H91.6582C93.9623 41.6663 95.8332 43.5538 95.8332 45.8205V70.8455C95.8332 73.1372 93.9998 74.9997 91.6582 74.9997H8.3415C7.23849 74.9975 6.18098 74.5598 5.39908 73.7818C4.61718 73.0038 4.17419 71.9485 4.1665 70.8455V45.8205ZM24.9998 8.33301H74.9998L91.6665 41.6663H8.33317L24.9998 8.33301ZM12.4998 74.9997H24.9998V87.458C24.9998 89.783 23.154 91.6663 20.8373 91.6663H16.6623C16.1118 91.6664 15.5668 91.5572 15.0588 91.3452C14.5507 91.1331 14.0898 90.8224 13.7027 90.431C13.3156 90.0396 13.0099 89.5753 12.8034 89.065C12.597 88.5547 12.4938 88.0085 12.4998 87.458V74.9997ZM74.9998 74.9997H87.4998V87.458C87.4998 89.783 85.654 91.6663 83.3373 91.6663H79.1623C78.6118 91.6664 78.0668 91.5572 77.5588 91.3452C77.0507 91.1331 76.5898 90.8224 76.2027 90.431C75.8156 90.0396 75.5099 89.5753 75.3034 89.065C75.097 88.5547 74.9938 88.0085 74.9998 87.458V74.9997ZM20.8332 62.4997C21.9382 62.4997 22.998 62.0607 23.7794 61.2793C24.5608 60.4979 24.9998 59.4381 24.9998 58.333C24.9998 57.2279 24.5608 56.1681 23.7794 55.3867C22.998 54.6053 21.9382 54.1663 20.8332 54.1663C19.7281 54.1663 18.6683 54.6053 17.8869 55.3867C17.1055 56.1681 16.6665 57.2279 16.6665 58.333C16.6665 59.4381 17.1055 60.4979 17.8869 61.2793C18.6683 62.0607 19.7281 62.4997 20.8332 62.4997ZM79.1665 62.4997C80.2716 62.4997 81.3314 62.0607 82.1128 61.2793C82.8942 60.4979 83.3332 59.4381 83.3332 58.333C83.3332 57.2279 82.8942 56.1681 82.1128 55.3867C81.3314 54.6053 80.2716 54.1663 79.1665 54.1663C78.0614 54.1663 77.0016 54.6053 76.2202 55.3867C75.4388 56.1681 74.9998 57.2279 74.9998 58.333C74.9998 59.4381 75.4388 60.4979 76.2202 61.2793C77.0016 62.0607 78.0614 62.4997 79.1665 62.4997Z" stroke="#545454" stroke-width="8.33333"/>
</svg>
